<svg width="47.578mm" height="8.8006mm" version="1.1" viewBox="0 0 47.578 8.8006" xmlns="http://www.w3.org/2000/svg">
 <g transform="translate(-60.993 -119.72)">
  <g fill="#b39ddb" stroke-width=".26458">
   <path d="m60.993 127.73q0 0.78548 0.76481 0.78548 0.78548 0 0.78548-0.78548v-4.3718h1.8087q0.78548 0 0.78548 0.79581v3.5863q0 0.78548 0.77514 0.78548t0.77514-0.77515v-3.5657q0-2.3771-2.3254-2.3771l-2.5941 5e-3q-0.77514 0-0.77514 0.76481z"/>
   <path d="m71.354 120.5q0-0.76481-0.77514-0.76481h-0.53227q-2.3254 0-2.3254 2.3771v5.6327q0 0.77515 0.77514 0.77515 0.78031 5e-3 0.77514-0.76998v-3.3745l1.2609-5e-3q0.81132 5e-3 0.81132-0.76997 0-0.75448-0.78548-0.76998l-1.2867 5e-3v-0.75964q0-0.79065 0.79065-0.79065l0.5271-5e-3q0.76481 0 0.76481-0.78031z"/>
   <path d="m76 127.76q0-0.78031-0.76481-0.78031l-0.5271-5e-3q-0.79065 0-0.79065-0.79065v-2.8422l1.2867 5e-3q0.78548-0.0155 0.78548-0.76998 0-0.77515-0.81132-0.76998l-1.2609-5e-3v-0.76997q0.0052-0.78031-0.77514-0.77515-0.77514 0-0.77514 0.77515v5.116q0 2.3771 2.3254 2.3771h0.53226q0.77514 0 0.77514-0.76481z"/>
  </g>
  <g fill="#fff">
   <path d="m82.707 127.76q0-0.78031-0.75964-0.78031l-2.5941-5e-3q-0.79065 0-0.79065-0.79065v-2.0257q0-0.81648 0.75447-0.81131h2.5941q0.78548-0.0155 0.79065-0.76998 0-0.77515-0.81132-0.76998h-2.5528q-2.3254 0-2.3254 2.3461v1.9947q0 2.3771 2.3254 2.3771h2.5941q0.77514 0 0.77514-0.76481z" stroke-width=".26458"/>
   <path d="m83.741 127.74q0 0.78548 0.76481 0.78548 0.78548 0 0.78548-0.78548v-4.3822h1.8087q0.78548 0 0.78548 0.79581v3.5863q0 0.78548 0.77514 0.78548t0.77514-0.77515v-3.5657q0-2.3771-2.3254-2.3771h-1.819v-1.2919q0-0.79065-0.77514-0.79065t-0.77514 0.76998z" stroke-width=".26458"/>
   <path transform="scale(.26458)" d="m350.72 460.36c-5.8594 0-8.7891 2.9948-8.7891 8.9844v3.7109l17.598-2e-3c0.013-1.901-0.95703-2.8516-2.9102-2.8516l-8.8281-0.0176v-0.97656c0-1.9922 0.99611-2.9883 2.9883-2.9883l9.8047-0.0195c1.9141 0 2.8711-0.98307 2.8711-2.9492 0-1.9271-0.97656-2.8906-2.9297-2.8906zm-8.7891 12.695v3.7109c0 5.9896 2.9297 8.9844 8.7891 8.9844h9.8047c1.9531 0 2.9297-0.96355 2.9297-2.8906 0-1.9661-0.95703-2.9492-2.8711-2.9492l-9.8047-0.0195c-1.9922 0-2.9883-0.99609-2.9883-2.9883v-0.97656l8.8281-0.0195c1.9531 0 2.9232-0.95054 2.9102-2.8516z"/>
   <path d="m102.36 122.57q0-0.76481-0.77514-0.76481l-2.0671-5e-3q-2.3254 0-2.3099 2.0464-0.0052 2.0929 2.3358 2.0826h0.50126q0.76481 0.0103 0.76481 0.52193-0.0103 0.52709-0.78031 0.52709h-2.0877q-0.74414 5e-3 -0.74931 0.81132 0.0052 0.7183 0.75447 0.71313l2.0929 5e-3q2.2996-5e-3 2.3099-2.067 5e-3 -2.0309-2.3099-2.067h-0.50126q-0.79581 0-0.79581-0.49609 0-0.5271 0.79065-0.5271h2.0722q0.73897-0.0155 0.75447-0.78031z" stroke-width=".26458"/>
   <path d="m108.57 122.57q0-0.76481-0.77514-0.76481l-2.067-5e-3q-2.3254 0-2.3099 2.0464-5e-3 2.0929 2.3358 2.0826h0.50126q0.76481 0.0103 0.76481 0.52193-0.0103 0.52709-0.78031 0.52709h-2.0877q-0.74414 5e-3 -0.74931 0.81132 5e-3 0.7183 0.75448 0.71313l2.0929 5e-3q2.2996-5e-3 2.3099-2.067 5e-3 -2.0309-2.3099-2.067h-0.50126q-0.79582 0-0.79582-0.49609 0-0.5271 0.79065-0.5271h2.0722q0.73897-0.0155 0.75447-0.78031z" stroke-width=".26458"/>
  </g>
 </g>
</svg>
